<?xml version="1.0" standalone="no"?>
<!DOCTYPE svg PUBLIC "-//W3C//DTD SVG 20010904//EN"
 "http://www.w3.org/TR/2001/REC-SVG-20010904/DTD/svg10.dtd">
<svg version="1.0" xmlns="http://www.w3.org/2000/svg"
 width="283.000000pt" height="91.000000pt" viewBox="0 0 283.000000 91.000000"
 preserveAspectRatio="xMidYMid meet">

<g transform="translate(0.000000,91.000000) scale(0.100000,-0.100000)"
fill="#000000" stroke="none">
<path d="M693 609 c15 -9 17 -26 17 -134 0 -89 -3 -125 -12 -128 -7 -3 11 -6
41 -6 45 -1 52 1 42 13 -18 21 -10 126 10 139 35 22 49 2 49 -72 0 -46 -4 -71
-12 -74 -7 -3 12 -5 42 -5 30 0 49 2 43 5 -8 3 -13 25 -13 58 0 30 -4 65 -10
79 -12 34 -55 44 -92 23 l-28 -16 0 64 0 65 -47 0 c-38 -1 -44 -3 -30 -11z"/>
<path d="M1720 605 c-15 -18 -7 -43 16 -52 24 -9 46 24 33 48 -12 23 -32 24
-49 4z"/>
<path d="M1210 545 c0 -18 -5 -25 -20 -25 -11 0 -20 -4 -20 -10 0 -5 9 -10 20
-10 18 0 20 -7 20 -68 0 -40 5 -73 12 -80 13 -13 47 -16 75 -5 16 6 15 8 -7
13 -23 5 -25 11 -28 73 -3 66 -2 67 23 67 14 0 25 5 25 10 0 6 -11 10 -25 10
-20 0 -25 5 -25 25 0 20 -5 25 -25 25 -20 0 -25 -5 -25 -25z"/>
<path d="M453 509 c14 -9 17 -26 17 -119 0 -93 -3 -110 -17 -119 -14 -8 -2
-10 47 -11 61 0 63 1 42 16 -14 10 -22 25 -22 45 0 28 1 29 38 23 32 -5 43 -2
70 21 74 62 13 182 -75 148 -16 -6 -15 -8 7 -13 33 -8 47 -48 34 -97 -6 -28
-15 -39 -31 -41 -29 -4 -45 28 -43 86 4 72 4 72 -42 72 -34 -1 -39 -3 -25 -11z"/>
<path d="M1010 513 c-62 -23 -81 -100 -34 -144 36 -34 112 -34 148 0 29 27 35
83 12 113 -23 31 -85 46 -126 31z m70 -22 c5 -11 10 -38 10 -61 0 -51 -15 -80
-40 -80 -25 0 -40 29 -40 80 0 51 15 80 40 80 11 0 24 -9 30 -19z"/>
<path d="M1374 501 c-79 -48 -34 -161 63 -161 46 0 91 34 99 75 15 83 -82 135
-162 86z m96 -31 c14 -52 -2 -120 -28 -120 -31 0 -42 22 -42 80 0 58 11 80 42
80 12 0 21 -13 28 -40z"/>
<path d="M1703 506 c13 -10 17 -28 17 -79 0 -52 -4 -68 -17 -76 -14 -8 -4 -10
40 -11 53 0 57 1 43 16 -12 11 -16 36 -16 90 l0 74 -42 0 c-38 -1 -41 -2 -25
-14z"/>
<path d="M1833 509 c13 -8 17 -24 17 -79 0 -55 -4 -71 -17 -79 -14 -8 -4 -10
40 -11 55 0 57 1 41 17 -13 13 -15 29 -12 77 7 81 4 86 -45 86 -33 -1 -38 -3
-24 -11z"/>
<path d="M1942 511 c-10 -6 -9 -10 7 -14 19 -5 21 -13 21 -75 0 -47 -4 -72
-12 -75 -7 -3 12 -6 42 -6 42 -1 51 2 42 11 -7 7 -12 39 -12 73 0 47 -4 66
-18 78 -20 18 -49 22 -70 8z"/>
<path d="M2054 505 c-18 -14 -18 -15 0 -8 13 4 23 0 32 -12 19 -26 18 -110 -2
-129 -14 -15 -10 -16 43 -16 44 1 54 3 41 11 -14 8 -18 24 -18 73 0 48 -4 67
-18 79 -23 21 -52 22 -78 2z"/>
<path d="M2240 508 c-34 -18 -39 -61 -9 -82 20 -13 20 -16 6 -22 -22 -8 -22
-40 -1 -52 14 -8 12 -10 -10 -16 -21 -5 -27 -12 -24 -29 4 -32 44 -48 105 -44
125 9 126 117 1 117 -36 0 -48 4 -48 15 0 11 11 15 35 15 41 0 89 39 79 64 -4
11 -1 16 10 16 9 0 16 5 16 10 0 6 -11 10 -24 10 -13 0 -43 2 -67 5 -27 4 -54
1 -69 -7z m76 -22 c8 -32 -3 -66 -21 -66 -20 0 -38 38 -31 66 9 32 44 32 52 0z
m31 -162 c10 -27 -11 -49 -47 -49 -36 0 -57 22 -47 49 4 11 19 16 47 16 28 0
43 -5 47 -16z"/>
<path d="M1590 396 c-27 -33 18 -72 48 -42 13 13 14 20 6 34 -15 23 -38 26
-54 8z"/>
</g>
</svg>
